<?xml version="1.0" encoding="UTF-8" standalone="no"?>
<svg
   xmlns:dc="http://purl.org/dc/elements/1.1/"
   xmlns:cc="http://creativecommons.org/ns#"
   xmlns:rdf="http://www.w3.org/1999/02/22-rdf-syntax-ns#"
   xmlns:svg="http://www.w3.org/2000/svg"
   xmlns="http://www.w3.org/2000/svg"
   xmlns:sodipodi="http://sodipodi.sourceforge.net/DTD/sodipodi-0.dtd"
   xmlns:inkscape="http://www.inkscape.org/namespaces/inkscape"
   inkscape:version="1.0 (4035a4fb49, 2020-05-01)"
   sodipodi:docname="rss.svg"
   xml:space="preserve"
   viewBox="0 0 512 512"
   version="1.1"
   id="Layer_1"
   enable-background="new 0 0 512 512"><metadata
     id="metadata25"><rdf:RDF><cc:Work
         rdf:about=""><dc:format>image/svg+xml</dc:format><dc:type
           rdf:resource="http://purl.org/dc/dcmitype/StillImage" /></cc:Work></rdf:RDF></metadata><defs
     id="defs23" /><sodipodi:namedview
     inkscape:current-layer="Layer_1"
     inkscape:window-maximized="1"
     inkscape:window-y="0"
     inkscape:window-x="0"
     inkscape:cy="256"
     inkscape:cx="256"
     inkscape:zoom="1.4355469"
     showgrid="false"
     id="namedview21"
     inkscape:window-height="990"
     inkscape:window-width="1280"
     inkscape:pageshadow="2"
     inkscape:pageopacity="0"
     guidetolerance="10"
     gridtolerance="10"
     objecttolerance="10"
     borderopacity="1"
     bordercolor="#666666"
     pagecolor="#ffffff" /><g
     style="fill:#fbc64e;fill-opacity:1"
     id="g6"><g
       style="fill:#fbc64e;fill-opacity:1"
       id="g4"><circle
         style="fill:#fbc64e;fill-opacity:1"
         id="circle2"
         r="244.4"
         fill="#EFAC25"
         cy="256"
         cx="256" /></g></g><g
     id="g10"><path
       id="path8"
       fill="#FFFFFF"
       d="M255.3,474.1c-58.5,0-113.5-22.8-154.9-64.2S36.2,313.5,36.2,255S59,141.5,100.3,100.1   c41.4-41.4,96.4-64.2,154.9-64.2s113.5,22.8,154.9,64.2s64.2,96.4,64.2,154.9s-22.8,113.5-64.2,154.9S313.8,474.1,255.3,474.1z    M255.3,51.9C143.3,51.9,52.2,143,52.2,255s91.1,203.1,203.1,203.1s203-91.1,203-203.1S367.2,51.9,255.3,51.9z" /></g><g
     id="g18"><path
       id="path12"
       fill="#FFFFFF"
       d="M200.8,297.6c16,0,29.1,13,29.1,29.1c0,16.1-13,29.1-29.1,29.1c-16.1,0-29.1-13-29.1-29.1   C171.7,310.7,184.7,297.6,200.8,297.6z" /><path
       id="path14"
       fill="#FFFFFF"
       d="M171.7,257.1c54.2,0,98.3,43.9,98.3,98.9h40.5c0-76.9-62.3-139.4-138.8-139.4V257.1z" /><path
       id="path16"
       fill="#FFFFFF"
       d="M171.8,185.3c93.6,0,169.8,76.6,169.8,170.7H382c0-116.5-94.3-211.2-210.2-211.2V185.3z" /></g></svg>
