<?xml version="1.0" encoding="utf-8"?>
<!-- Svg Vector Icons : http://www.onlinewebfonts.com/icon -->
<!DOCTYPE svg PUBLIC "-//W3C//DTD SVG 1.1//EN" "http://www.w3.org/Graphics/SVG/1.1/DTD/svg11.dtd">
<svg version="1.1" xmlns="http://www.w3.org/2000/svg" xmlns:xlink="http://www.w3.org/1999/xlink" x="0px" y="0px" viewBox="0 0 1000 1000" enable-background="new 0 0 1000 1000" xml:space="preserve">
<metadata> Svg Vector Icons : http://www.onlinewebfonts.com/icon </metadata>
<g><g transform="translate(0.000000,511.000000) scale(0.100000,-0.100000)"><path d="M4682.9,5006.1c-520-52-826.2-113.6-1234.5-248.4c-728-240.7-1363.5-631.7-1914.3-1184.4C777.3,2818.3,309.3,1884.3,145.6,815.4C95.6,490,84-170.6,124.5-471c148.3-1124.7,618.2-2095.3,1390.5-2869.5c400.6-402.5,791.5-687.5,1280.7-935.9c506.5-254.2,1032.3-414.1,1627.3-493c273.5-34.7,943.7-28.9,1222.9,11.6c1107.4,159.8,2052.9,627.8,2821.3,1398.1c770.3,768.4,1238.3,1712.1,1398.2,2821.3c46.2,317.8,46.2,972.5,0,1290.3c-213.8,1479-1007.2,2715.4-2249.4,3507c-543.1,346.7-1236.4,602.8-1896.9,701C5466.7,4996.4,4863.9,5025.3,4682.9,5006.1z M3843.2,3084.1c119.4-57.8,238.8-202.2,348.6-425.6c119.4-244.6,192.6-493,206.1-708.7l11.5-171.4l-123.3-117.5c-88.6-84.7-188.7-152.1-342.8-233c-348.6-179.1-400.6-244.6-381.3-469.9c25-331.2,479.5-1192.1,974.5-1843c263.8-348.6,808.8-857,920.6-857c13.5,0,102.1,65.5,194.5,146.4c577.8,506.5,930.2,466.1,1452.1-163.7c261.9-317.8,302.4-458.3,183-656.7c-109.8-186.8-452.6-406.3-735.7-473.8c-261.9-61.6-612.4-32.7-901.3,77c-953.3,358.2-1922,1357.7-2515.1,2596c-306.2,637.4-456.4,1190.2-477.6,1758.3c-17.3,483.4,38.5,699.1,263.8,1038c144.4,213.8,348.6,425.6,477.6,491.1C3562.1,3153.4,3691.1,3157.3,3843.2,3084.1z"/></g></g>
</svg>