<?xml version="1.0" ?><!DOCTYPE svg  PUBLIC '-//W3C//DTD SVG 1.1//EN'  'http://www.w3.org/Graphics/SVG/1.1/DTD/svg11.dtd'><svg enable-background="new 0 0 512 512" id="Layer_1" version="1.1" viewBox="0 0 512 512" xml:space="preserve" xmlns="http://www.w3.org/2000/svg" xmlns:xlink="http://www.w3.org/1999/xlink"><g><g><circle cx="256" cy="256" fill="#EFAC25" r="244.4"/></g></g><g><path d="M255.3,474.1c-58.5,0-113.5-22.8-154.9-64.2S36.2,313.5,36.2,255S59,141.5,100.3,100.1   c41.4-41.4,96.4-64.2,154.9-64.2s113.5,22.8,154.9,64.2s64.2,96.4,64.2,154.9s-22.8,113.5-64.2,154.9S313.8,474.1,255.3,474.1z    M255.3,51.9C143.3,51.9,52.2,143,52.2,255s91.1,203.1,203.1,203.1s203-91.1,203-203.1S367.2,51.9,255.3,51.9z" fill="#FFFFFF"/></g><g><path d="M200.8,297.6c16,0,29.1,13,29.1,29.1c0,16.1-13,29.1-29.1,29.1c-16.1,0-29.1-13-29.1-29.1   C171.7,310.7,184.7,297.6,200.8,297.6z" fill="#FFFFFF"/><path d="M171.7,257.1c54.2,0,98.3,43.9,98.3,98.9h40.5c0-76.9-62.3-139.4-138.8-139.4V257.1z" fill="#FFFFFF"/><path d="M171.8,185.3c93.6,0,169.8,76.6,169.8,170.7H382c0-116.5-94.3-211.2-210.2-211.2V185.3z" fill="#FFFFFF"/></g></svg>